#Comment line ignore any data following # character 
#Hierarchical Translation and Rotation (.htr) file 
[Header]	
#Header keywords are followed by a single value 
FileType HTR		#Single word string
DataType HTRS		#Translation followed by rotation and scale data
FileVersion 1		#integer
NumSegments 84		#integer
NumFrames 2		#integer
DataFrameRate 30		#integer, data frame rate in this file
EulerRotationOrder ZYX
CalibrationUnits mm
RotationUnits Degrees
GlobalAxisofGravity Y
BoneLengthAxis Y
ScaleFactor 1.00
[SegmentNames&Hierarchy]
#CHILD	PARENT
MASTER GLOBAL
root MASTER
chest root
L_mid_tent01 root
R_mid_tent01 root
spine01 root
Bip01_Neck chest
L_humerus chest
R_humerus chest
weapon_bone chest
Bip01_Head Bip01_Neck
eye_left_bone Bip01_Head
eye_right_bone Bip01_Head
L_forearm L_humerus
L_front_hand L_forearm
L_weapon_bone L_forearm
L_front_hand01_01 L_front_hand
L_front_hand02_01 L_front_hand
L_front_hand03_01 L_front_hand
L_front_hand01_02 L_front_hand01_01
L_front_hand02_02 L_front_hand02_01
L_front_hand03_02 L_front_hand03_01
R_forearm R_humerus
R_front_hand R_forearm
R_weapon_bone R_forearm
R_front_hand01_01 R_front_hand
R_front_hand02_01 R_front_hand
R_front_hand03_01 R_front_hand
R_front_hand01_02 R_front_hand01_01
R_front_hand02_02 R_front_hand02_01
R_front_hand03_02 R_front_hand03_01
null_rope01_connect L_mid_tent01
Rope1_Seg01 null_rope01_connect
Rope1_Seg02 Rope1_Seg01
Rope1_Seg03 Rope1_Seg02
Rope1_Seg04 Rope1_Seg03
Rope1_Seg05 Rope1_Seg04
Rope1_Seg06 Rope1_Seg05
Rope1_Seg07 Rope1_Seg06
Rope1_Seg09 Rope1_Seg07
L_mid_hand01 Rope1_Seg09
L_mid_hand02 Rope1_Seg09
L_mid_hand03 Rope1_Seg09
null_rope02_connect R_mid_tent01
Rope2_Seg01 null_rope02_connect
Rope2_Seg02 Rope2_Seg01
Rope2_Seg03 Rope2_Seg02
Rope2_Seg04 Rope2_Seg03
Rope2_Seg05 Rope2_Seg04
Rope2_Seg06 Rope2_Seg05
Rope2_Seg07 Rope2_Seg06
Rope2_Seg09 Rope2_Seg07
R_mid_hand01 Rope2_Seg09
R_mid_hand02 Rope2_Seg09
R_mid_hand03 Rope2_Seg09
spine02 spine01
spine03 spine02
pelvis spine03
null_rope03_connect pelvis
null_rope04_connect pelvis
Rope3_Seg01 null_rope03_connect
Rope3_Seg02 Rope3_Seg01
Rope3_Seg03 Rope3_Seg02
Rope3_Seg04 Rope3_Seg03
Rope3_Seg05 Rope3_Seg04
Rope3_Seg06 Rope3_Seg05
Rope3_Seg07 Rope3_Seg06
Rope3_Seg08 Rope3_Seg07
Rope3_Seg09 Rope3_Seg08
R_rear_hand01 Rope3_Seg09
R_rear_hand02 Rope3_Seg09
R_rear_hand03 Rope3_Seg09
Rope4_Seg01 null_rope04_connect
Rope4_Seg02 Rope4_Seg01
Rope4_Seg03 Rope4_Seg02
Rope4_Seg04 Rope4_Seg03
Rope4_Seg05 Rope4_Seg04
Rope4_Seg06 Rope4_Seg05
Rope4_Seg07 Rope4_Seg06
Rope4_Seg08 Rope4_Seg07
Rope4_Seg09 Rope4_Seg08
L_rear_hand01 Rope4_Seg09
L_rear_hand02 Rope4_Seg09
L_rear_hand03 Rope4_Seg09
[BasePosition]
#SegmentName Tx, Ty, Tz, Rx, Ry, Rz, BoneLength
MASTER 0.000000 0.000000 0.000000 -90.000000 0.000000 0.000000 10.000000 
root 0.000000 0.000000 0.000000 0.000000 0.000000 0.000000 10.000000 
chest 0.000000 0.000000 0.000000 0.000000 0.000000 0.000000 10.000000 
L_mid_tent01 0.000000 0.000000 0.000000 0.000000 0.000000 0.000000 10.000000 
R_mid_tent01 0.000000 0.000000 0.000000 0.000000 0.000000 0.000000 10.000000 
spine01 0.000000 0.000000 0.000000 0.000000 0.000000 0.000000 10.000000 
Bip01_Neck 0.000000 0.000000 0.000000 0.000000 0.000000 0.000000 10.000000 
L_humerus 0.000000 0.000000 0.000000 0.000000 0.000000 0.000000 10.000000 
R_humerus 0.000000 0.000000 0.000000 0.000000 0.000000 0.000000 10.000000 
weapon_bone 0.000000 0.000000 0.000000 0.000000 0.000000 0.000000 10.000000 
Bip01_Head 0.000000 0.000000 0.000000 0.000000 0.000000 0.000000 10.000000 
eye_left_bone 0.000000 0.000000 0.000000 0.000000 0.000000 0.000000 10.000000 
eye_right_bone 0.000000 0.000000 0.000000 0.000000 0.000000 0.000000 10.000000 
L_forearm 0.000000 0.000000 0.000000 0.000000 0.000000 0.000000 10.000000 
L_front_hand 0.000000 0.000000 0.000000 0.000000 0.000000 0.000000 10.000000 
L_weapon_bone 0.000000 0.000000 0.000000 0.000000 0.000000 0.000000 10.000000 
L_front_hand01_01 0.000000 0.000000 0.000000 0.000000 0.000000 0.000000 10.000000 
L_front_hand02_01 0.000000 0.000000 0.000000 0.000000 0.000000 0.000000 10.000000 
L_front_hand03_01 0.000000 0.000000 0.000000 0.000000 0.000000 0.000000 10.000000 
L_front_hand01_02 0.000000 0.000000 0.000000 0.000000 0.000000 0.000000 10.000000 
L_front_hand02_02 0.000000 0.000000 0.000000 0.000000 0.000000 0.000000 10.000000 
L_front_hand03_02 0.000000 0.000000 0.000000 0.000000 0.000000 0.000000 10.000000 
R_forearm 0.000000 0.000000 0.000000 0.000000 0.000000 0.000000 10.000000 
R_front_hand 0.000000 0.000000 0.000000 0.000000 0.000000 0.000000 10.000000 
R_weapon_bone 0.000000 0.000000 0.000000 0.000000 0.000000 0.000000 10.000000 
R_front_hand01_01 0.000000 0.000000 0.000000 0.000000 0.000000 0.000000 10.000000 
R_front_hand02_01 0.000000 0.000000 0.000000 0.000000 0.000000 0.000000 10.000000 
R_front_hand03_01 0.000000 0.000000 0.000000 0.000000 0.000000 0.000000 10.000000 
R_front_hand01_02 0.000000 0.000000 0.000000 0.000000 0.000000 0.000000 10.000000 
R_front_hand02_02 0.000000 0.000000 0.000000 0.000000 0.000000 0.000000 10.000000 
R_front_hand03_02 0.000000 0.000000 0.000000 0.000000 0.000000 0.000000 10.000000 
null_rope01_connect 0.000000 0.000000 0.000000 0.000000 0.000000 0.000000 10.000000 
Rope1_Seg01 0.000000 0.000000 0.000000 0.000000 0.000000 0.000000 10.000000 
Rope1_Seg02 0.000000 0.000000 0.000000 0.000000 0.000000 0.000000 10.000000 
Rope1_Seg03 0.000000 0.000000 0.000000 0.000000 0.000000 0.000000 10.000000 
Rope1_Seg04 0.000000 0.000000 0.000000 0.000000 0.000000 0.000000 10.000000 
Rope1_Seg05 0.000000 0.000000 0.000000 0.000000 0.000000 0.000000 10.000000 
Rope1_Seg06 0.000000 0.000000 0.000000 0.000000 0.000000 0.000000 10.000000 
Rope1_Seg07 0.000000 0.000000 0.000000 0.000000 0.000000 0.000000 10.000000 
Rope1_Seg09 0.000000 0.000000 0.000000 0.000000 0.000000 0.000000 10.000000 
L_mid_hand01 0.000000 0.000000 0.000000 0.000000 0.000000 0.000000 10.000000 
L_mid_hand02 0.000000 0.000000 0.000000 0.000000 0.000000 0.000000 10.000000 
L_mid_hand03 0.000000 0.000000 0.000000 0.000000 0.000000 0.000000 10.000000 
null_rope02_connect 0.000000 0.000000 0.000000 0.000000 0.000000 0.000000 10.000000 
Rope2_Seg01 0.000000 0.000000 0.000000 0.000000 0.000000 0.000000 10.000000 
Rope2_Seg02 0.000000 0.000000 0.000000 0.000000 0.000000 0.000000 10.000000 
Rope2_Seg03 0.000000 0.000000 0.000000 0.000000 0.000000 0.000000 10.000000 
Rope2_Seg04 0.000000 0.000000 0.000000 0.000000 0.000000 0.000000 10.000000 
Rope2_Seg05 0.000000 0.000000 0.000000 0.000000 0.000000 0.000000 10.000000 
Rope2_Seg06 0.000000 0.000000 0.000000 0.000000 0.000000 0.000000 10.000000 
Rope2_Seg07 0.000000 0.000000 0.000000 0.000000 0.000000 0.000000 10.000000 
Rope2_Seg09 0.000000 0.000000 0.000000 0.000000 0.000000 0.000000 10.000000 
R_mid_hand01 0.000000 0.000000 0.000000 0.000000 0.000000 0.000000 10.000000 
R_mid_hand02 0.000000 0.000000 0.000000 0.000000 0.000000 0.000000 10.000000 
R_mid_hand03 0.000000 0.000000 0.000000 0.000000 0.000000 0.000000 10.000000 
spine02 0.000000 0.000000 0.000000 0.000000 0.000000 0.000000 10.000000 
spine03 0.000000 0.000000 0.000000 0.000000 0.000000 0.000000 10.000000 
pelvis 0.000000 0.000000 0.000000 0.000000 0.000000 0.000000 10.000000 
null_rope03_connect 0.000000 0.000000 0.000000 0.000000 0.000000 0.000000 10.000000 
null_rope04_connect 0.000000 0.000000 0.000000 0.000000 0.000000 0.000000 10.000000 
Rope3_Seg01 0.000000 0.000000 0.000000 0.000000 0.000000 0.000000 10.000000 
Rope3_Seg02 0.000000 0.000000 0.000000 0.000000 0.000000 0.000000 10.000000 
Rope3_Seg03 0.000000 0.000000 0.000000 0.000000 0.000000 0.000000 10.000000 
Rope3_Seg04 0.000000 0.000000 0.000000 0.000000 0.000000 0.000000 10.000000 
Rope3_Seg05 0.000000 0.000000 0.000000 0.000000 0.000000 0.000000 10.000000 
Rope3_Seg06 0.000000 0.000000 0.000000 0.000000 0.000000 0.000000 10.000000 
Rope3_Seg07 0.000000 0.000000 0.000000 0.000000 0.000000 0.000000 10.000000 
Rope3_Seg08 0.000000 0.000000 0.000000 0.000000 0.000000 0.000000 10.000000 
Rope3_Seg09 0.000000 0.000000 0.000000 0.000000 0.000000 0.000000 10.000000 
R_rear_hand01 0.000000 0.000000 0.000000 0.000000 0.000000 0.000000 10.000000 
R_rear_hand02 0.000000 0.000000 0.000000 0.000000 0.000000 0.000000 10.000000 
R_rear_hand03 0.000000 0.000000 0.000000 0.000000 0.000000 0.000000 10.000000 
Rope4_Seg01 0.000000 0.000000 0.000000 0.000000 0.000000 0.000000 10.000000 
Rope4_Seg02 0.000000 0.000000 0.000000 0.000000 0.000000 0.000000 10.000000 
Rope4_Seg03 0.000000 0.000000 0.000000 0.000000 0.000000 0.000000 10.000000 
Rope4_Seg04 0.000000 0.000000 0.000000 0.000000 0.000000 0.000000 10.000000 
Rope4_Seg05 0.000000 0.000000 0.000000 0.000000 0.000000 0.000000 10.000000 
Rope4_Seg06 0.000000 0.000000 0.000000 0.000000 0.000000 0.000000 10.000000 
Rope4_Seg07 0.000000 0.000000 0.000000 0.000000 0.000000 0.000000 10.000000 
Rope4_Seg08 0.000000 0.000000 0.000000 0.000000 0.000000 0.000000 10.000000 
Rope4_Seg09 0.000000 0.000000 0.000000 0.000000 0.000000 0.000000 10.000000 
L_rear_hand01 0.000000 0.000000 0.000000 0.000000 0.000000 0.000000 10.000000 
L_rear_hand02 0.000000 0.000000 0.000000 0.000000 0.000000 0.000000 10.000000 
L_rear_hand03 0.000000 0.000000 0.000000 0.000000 0.000000 0.000000 10.000000 
#Beginning of Data. Separated by tabs
#Fr	Tx	Ty	Tz	Rx	Ry	Rz	SF
[MASTER]
20 0.000000 0.000000 0.000000 0.001660 0.001660 0.001660 0.000000
21 0.000000 0.000000 0.000000 0.001660 0.001660 0.001660 0.000000
[root]
20 -16.502304 9.364140 1448.317383 -91.728889 -11.584497 -89.471619 1448.441650
21 -16.502304 9.364140 1448.317383 -91.728889 -11.584497 -89.471619 1448.441650
[chest]
20 -84.512650 -34.090519 0.000000 -2.144813 0.313244 176.732239 91.129311
21 -84.512650 -34.090519 0.000000 -2.144812 0.313244 176.732239 91.129311
[L_mid_tent01]
20 27.299511 22.177458 -249.918259 -28.266100 32.791580 -5.365355 252.381134
21 27.299511 22.177458 -249.918259 -28.266106 32.791584 -5.365355 252.381134
[R_mid_tent01]
20 23.228794 24.509907 226.238495 -156.204071 -32.814335 0.416457 228.744751
21 23.228794 24.509907 226.238495 -156.204071 -32.814335 0.416457 228.744751
[spine01]
20 -0.361383 -0.195265 0.000000 -0.000001 -0.000007 22.052340 0.410763
21 -0.361383 -0.195265 0.000000 -0.000001 -0.000007 22.052340 0.410763
[Bip01_Neck]
20 165.484543 71.581718 0.000119 175.896118 1.177290 24.871183 180.302734
21 165.484543 71.581718 0.000119 175.896118 1.177290 24.871183 180.302734
[L_humerus]
20 -13.983130 -135.272980 -120.471481 139.909653 88.317627 -130.290085 181.680161
21 -13.983130 -135.272980 -120.471481 139.909836 88.317749 -130.290085 181.680161
[R_humerus]
20 -13.983309 -135.273102 125.287651 133.576981 -87.684464 -45.901276 184.909012
21 -13.983309 -135.273102 125.287651 133.576981 -87.684464 -45.901276 184.909012
[weapon_bone]
20 235.964890 -300.705902 0.000000 0.000000 -89.951546 -128.212341 382.234833
21 235.964890 -300.705902 0.000000 0.000000 -89.951546 -128.212341 382.234833
[Bip01_Head]
20 193.865784 99.525146 7.890730 1.727521 4.534425 -43.429157 218.062973
21 193.865784 99.525146 7.890730 1.727521 4.534425 -43.429157 218.062973
[eye_left_bone]
20 -24.626970 125.451866 -64.772606 0.000000 -90.000000 -99.840431 143.318359
21 -24.626970 125.451866 -64.772606 0.000000 -90.000000 -99.840431 143.318359
[eye_right_bone]
20 -24.626970 125.451866 64.327362 0.000000 -89.965736 80.156380 143.117676
21 -24.626970 125.451866 64.327362 0.000000 -89.965736 80.156380 143.117676
[L_forearm]
20 322.776093 0.000000 -0.000119 0.000248 -0.002334 -102.125244 322.776093
21 322.776093 0.000000 -0.000119 0.000248 -0.002334 -102.125244 322.776093
[L_front_hand]
20 241.149185 -0.042021 -3.300071 -179.659958 -2.242151 -0.019832 241.171753
21 241.149185 -0.042021 -3.300071 -179.659958 -2.242151 -0.019832 241.171753
[L_weapon_bone]
20 156.183838 0.000000 0.000000 0.000014 0.000007 0.000001 156.183838
21 156.183838 0.000000 0.000000 0.000014 0.000007 0.000001 156.183838
[L_front_hand01_01]
20 86.095154 20.947098 -0.655860 -0.366594 -0.477154 75.385574 88.609184
21 86.095154 20.947098 -0.655860 -0.366594 -0.477154 75.385574 88.609184
[L_front_hand02_01]
20 86.935165 -11.437475 24.513514 154.399796 -59.883835 -61.369587 91.046425
21 86.935165 -11.437475 24.513514 154.399796 -59.883835 -61.369587 91.046425
[L_front_hand03_01]
20 86.637497 -14.123976 -20.424902 -153.913849 58.118130 -62.702866 90.126129
21 86.637497 -14.123976 -20.424902 -153.913879 58.118130 -62.702892 90.126129
[L_front_hand01_02]
20 71.020905 -0.000179 0.000030 0.000334 -0.002323 -106.379684 71.020905
21 71.020905 -0.000179 0.000030 0.000334 -0.002323 -106.379684 71.020905
[L_front_hand02_02]
20 71.020927 -0.000119 0.000060 0.000334 -0.002323 -106.379684 71.020927
21 71.020927 -0.000119 0.000060 0.000334 -0.002323 -106.379684 71.020927
[L_front_hand03_02]
20 71.020905 -0.000060 0.000060 0.000334 -0.002323 -106.379684 71.020905
21 71.020905 -0.000060 0.000060 0.000334 -0.002323 -106.379684 71.020905
[R_forearm]
20 322.776428 -0.000060 0.000030 0.208463 0.026596 -98.191154 322.776428
21 322.776428 -0.000060 0.000030 0.208463 0.026596 -98.191154 322.776428
[R_front_hand]
20 238.847015 -0.006795 2.210259 -0.270529 1.703932 2.322530 238.857239
21 238.847015 -0.006795 2.210259 -0.270529 1.703932 2.322531 238.857239
[R_weapon_bone]
20 155.664093 0.002503 -0.000030 0.003487 0.001180 -90.988930 155.664078
21 155.664093 0.002503 -0.000030 0.003487 0.001180 -90.988930 155.664078
[R_front_hand01_01]
20 87.624611 14.231146 22.918642 -154.633499 -59.950619 61.746044 91.683487
21 87.624611 14.231146 22.918642 -154.633514 -59.950634 61.746063 91.683487
[R_front_hand02_01]
20 89.356956 14.367283 -19.491137 154.602661 58.302849 63.744389 92.579636
21 89.356956 14.367283 -19.491137 154.602661 58.302849 63.744389 92.579636
[R_front_hand03_01]
20 87.286232 -22.307278 -0.143439 0.162155 -0.423168 -75.767921 90.091743
21 87.286232 -22.307278 -0.143439 0.162155 -0.423168 -75.767921 90.091743
[R_front_hand01_02]
20 71.020905 0.000060 0.000119 0.002323 -0.000334 106.381714 71.020905
21 71.020905 0.000060 0.000119 0.002323 -0.000334 106.381714 71.020905
[R_front_hand02_02]
20 71.020844 -0.000030 -0.000119 0.002323 -0.000334 106.381714 71.020836
21 71.020844 -0.000030 -0.000119 0.002323 -0.000334 106.381714 71.020836
[R_front_hand03_02]
20 71.020905 0.000000 0.000030 0.002323 -0.000334 106.381714 71.020905
21 71.020905 0.000000 0.000030 0.002323 -0.000334 106.381714 71.020905
[null_rope01_connect]
20 328.732483 0.000000 -0.000238 -119.541275 -47.109665 -141.366821 328.732483
21 328.732483 0.000000 -0.000238 -119.541275 -47.109665 -141.366821 328.732483
[Rope1_Seg01]
20 0.000000 0.000000 0.000000 37.408020 5.852537 -116.215111 0.000000
21 0.000000 0.000000 0.000000 43.734085 5.992640 -118.493469 0.000000
[Rope1_Seg02]
20 139.999863 -0.000179 0.000000 -5.409382 -0.197956 3.427857 139.999863
21 139.999863 -0.000179 0.000000 -5.420110 -0.228688 3.399621 139.999863
[Rope1_Seg03]
20 139.999924 0.000060 -0.000060 -5.057866 -0.656168 4.284175 139.999924
21 139.999924 0.000060 -0.000060 -5.145503 -0.728239 4.372301 139.999924
[Rope1_Seg04]
20 139.999924 -0.000060 -0.000119 -7.041709 -0.885703 7.275687 139.999924
21 139.999924 -0.000060 -0.000119 -5.208106 -2.327430 7.247715 139.999924
[Rope1_Seg05]
20 139.999832 0.000119 -0.000060 -1.983706 -3.125926 5.585153 139.999832
21 139.999832 0.000119 -0.000060 -3.949366 -0.853115 5.234018 139.999832
[Rope1_Seg06]
20 139.999954 0.000119 -0.000060 3.300584 -1.893234 -1.730444 139.999954
21 139.999954 0.000119 -0.000060 -1.019832 0.672832 0.391353 139.999954
[Rope1_Seg07]
20 139.999985 0.000060 0.000000 0.946630 -0.977325 -0.036088 139.999985
21 139.999985 0.000060 0.000000 -0.592149 -0.048955 0.733893 139.999985
[Rope1_Seg09]
20 121.602913 0.000119 -0.000089 -89.793175 -1.359789 0.847147 121.602913
21 121.602913 0.000119 -0.000089 -89.793175 -1.359789 0.847147 121.602913
[L_mid_hand01]
20 103.859421 1.038730 8.195221 106.855484 -31.239275 -9.461397 104.187431
21 103.859421 1.038730 8.195221 106.855484 -31.239275 -9.461397 104.187431
[L_mid_hand02]
20 105.572853 -4.139662 -10.864139 -142.331345 25.752670 -28.774628 106.211075
21 105.572853 -4.139662 -10.864139 -142.331345 25.752670 -28.774628 106.211075
[L_mid_hand03]
20 104.641464 17.579376 -3.913581 -16.122810 9.734291 34.223598 106.179977
21 104.641464 17.579376 -3.913581 -16.122810 9.734291 34.223598 106.179977
[null_rope02_connect]
20 328.732849 0.000179 -0.000119 -116.029846 50.874496 -29.531256 328.732849
21 328.732849 0.000179 -0.000119 -116.029831 50.874489 -29.531246 328.732849
[Rope2_Seg01]
20 -0.000038 0.000153 0.000000 66.943092 10.423827 -50.875275 0.000157
21 -0.000038 0.000153 0.000000 69.809952 10.555184 -51.638981 0.000157
[Rope2_Seg02]
20 139.999741 -0.000060 -0.000119 -5.677547 -6.271443 4.896460 139.999756
21 139.999741 -0.000060 -0.000119 -10.382605 -5.758858 6.594350 139.999756
[Rope2_Seg03]
20 140.000107 0.000030 0.000000 -5.774095 -4.157262 4.721848 140.000107
21 140.000107 0.000030 0.000000 -12.062660 -2.020324 7.028548 140.000107
[Rope2_Seg04]
20 139.999802 0.000000 -0.000060 -8.020535 -1.616332 5.521537 139.999802
21 139.999802 0.000000 -0.000060 -2.011304 -4.038101 3.032716 139.999802
[Rope2_Seg05]
20 139.999985 -0.000060 0.000119 12.212402 -9.020142 -5.077262 139.999985
21 139.999985 -0.000060 0.000119 20.040897 -11.205250 -10.691409 139.999985
[Rope2_Seg06]
20 139.999893 -0.000030 -0.000119 15.297727 -15.333452 -8.905240 139.999893
21 139.999893 -0.000030 -0.000119 10.900371 -11.671746 -6.336079 139.999893
[Rope2_Seg07]
20 139.999893 0.000060 -0.000060 4.343333 -9.547629 -2.109476 139.999893
21 139.999893 0.000060 -0.000060 2.788678 -5.559484 -1.302686 139.999893
[Rope2_Seg09]
20 121.338966 0.000089 -0.000060 33.793236 -1.359788 -0.847141 121.338966
21 121.338966 0.000089 -0.000060 33.793236 -1.359788 -0.847141 121.338966
[R_mid_hand01]
20 104.680779 11.144459 -10.335981 -41.523792 25.424656 28.595957 105.778534
21 104.680779 11.144459 -10.335981 -41.523792 25.424656 28.595957 105.778534
[R_mid_hand02]
20 104.070427 2.443552 8.231699 72.847389 -32.746803 10.013901 104.424065
21 104.070427 2.443552 8.231699 72.847389 -32.746803 10.013901 104.424065
[R_mid_hand03]
20 106.028137 -11.221827 -5.996406 -167.901306 10.259192 -37.009720 106.788818
21 106.028137 -11.221827 -5.996406 -167.901306 10.259192 -37.009720 106.788818
[spine02]
20 129.756927 0.001550 0.000119 0.360061 -4.044797 -12.915058 129.756927
21 129.756927 0.001550 0.000119 0.360061 -4.044797 -12.915058 129.756927
[spine03]
20 78.613846 0.087372 -4.898873 1.896495 3.831288 16.473045 78.766380
21 78.613846 0.087372 -4.898873 1.896495 3.831288 16.473045 78.766380
[pelvis]
20 169.435242 0.051022 0.000000 -0.060465 -0.180225 14.087930 169.435257
21 169.435242 0.051022 0.000000 -0.060465 -0.180225 14.087930 169.435257
[null_rope03_connect]
20 -1.257226 -2.466202 137.391083 156.329987 -89.381348 -94.430771 137.418976
21 -1.257226 -2.466202 137.391083 156.329987 -89.381348 -94.430771 137.418976
[null_rope04_connect]
20 -1.259640 -2.480268 -137.844437 156.329987 -89.381348 -94.430771 137.872513
21 -1.259640 -2.480268 -137.844437 156.329987 -89.381348 -94.430771 137.872513
[Rope3_Seg01]
20 0.000010 0.000038 -0.000114 -134.735535 24.932301 -84.634575 0.000121
21 0.000010 0.000038 -0.000114 -134.859787 27.080832 -83.755905 0.000121
[Rope3_Seg02]
20 139.999924 -0.000119 0.000060 0.393556 -1.333385 -4.747539 139.999924
21 139.999924 -0.000119 0.000060 0.600373 -0.092888 -5.574893 139.999924
[Rope3_Seg03]
20 139.999924 -0.000119 0.000119 0.253364 -1.448286 -4.637291 139.999924
21 139.999924 -0.000119 0.000119 0.298229 -0.362629 -4.560449 139.999924
[Rope3_Seg04]
20 139.999924 0.000119 0.000000 0.181885 -4.164512 -5.361666 139.999924
21 139.999924 0.000119 0.000000 0.064774 -1.446098 -3.823186 139.999924
[Rope3_Seg05]
20 139.999924 -0.000238 0.000060 -0.088258 0.656994 -3.599954 139.999924
21 139.999924 -0.000238 0.000060 0.054030 1.190508 -3.054743 139.999924
[Rope3_Seg06]
20 139.999893 -0.000119 -0.000060 -0.093707 6.587484 -0.796369 139.999893
21 139.999893 -0.000119 -0.000060 0.189948 3.419216 -2.313392 139.999893
[Rope3_Seg07]
20 139.999771 0.000060 -0.000119 0.343491 5.034778 -0.557508 139.999771
21 139.999771 0.000060 -0.000119 0.339445 2.624100 -1.885353 139.999771
[Rope3_Seg08]
20 139.999985 -0.000060 0.000000 0.510455 2.517496 -0.709382 139.999985
21 139.999985 -0.000060 0.000000 0.435054 1.416456 -1.353170 139.999985
[Rope3_Seg09]
20 90.185997 -0.000179 -0.000060 89.793228 -1.359877 -0.847183 90.185997
21 90.185997 -0.000179 -0.000060 89.793228 -1.359877 -0.847183 90.185997
[R_rear_hand01]
20 103.366196 -6.073594 -10.757982 -161.551193 16.666374 -30.088671 104.101845
21 103.366196 -6.073594 -10.757982 -161.551193 16.666374 -30.088671 104.101845
[R_rear_hand02]
20 100.509819 12.039542 -7.992327 -34.280552 19.289745 28.875523 101.543350
21 100.509819 12.039542 -7.992327 -34.280552 19.289745 28.875523 101.543350
[R_rear_hand03]
20 101.539970 5.215704 5.435467 83.366440 -30.933914 7.284830 101.819031
21 101.539970 5.215704 5.435467 83.366440 -30.933914 7.284830 101.819031
[Rope4_Seg01]
20 0.000010 0.000038 -0.000114 49.892372 29.438351 -99.538712 0.000121
21 0.000010 0.000038 -0.000114 49.855885 31.414883 -100.343575 0.000121
[Rope4_Seg02]
20 139.999985 0.000060 0.000119 -1.189375 -1.147937 6.154750 139.999985
21 139.999985 0.000060 0.000119 -1.310115 -2.606749 6.258222 139.999985
[Rope4_Seg03]
20 139.999924 0.000000 -0.000238 -1.797121 -1.607556 7.705086 139.999924
21 139.999924 0.000000 -0.000238 -1.989221 -4.151949 8.495809 139.999924
[Rope4_Seg04]
20 139.999985 0.000000 0.000119 -4.868361 -6.868930 14.788263 139.999985
21 139.999985 0.000000 0.000119 -4.427788 -13.147654 15.581559 139.999985
[Rope4_Seg05]
20 139.999802 -0.000060 -0.000119 -1.200810 1.671548 6.190050 139.999802
21 139.999802 -0.000060 -0.000119 0.751242 10.692114 3.495036 139.999802
[Rope4_Seg06]
20 139.999924 0.000000 0.000060 3.891845 11.204541 -6.781129 139.999924
21 139.999924 0.000000 0.000060 3.397952 13.517525 -3.382847 139.999924
[Rope4_Seg07]
20 139.999802 0.000000 0.000000 2.064872 4.315586 -2.395704 139.999802
21 139.999802 0.000000 0.000000 1.344460 4.230770 -0.359474 139.999802
[Rope4_Seg08]
20 139.999924 0.000000 0.000119 -0.491222 2.089671 -0.986721 139.999924
21 139.999924 0.000000 0.000119 -0.666507 2.384217 -0.254605 139.999924
[Rope4_Seg09]
20 90.185791 0.000060 0.000060 -135.617828 2.228885 0.850567 90.185791
21 90.185791 0.000060 0.000060 -135.617828 2.228885 0.850567 90.185791
[L_rear_hand01]
20 101.696655 -8.392275 -7.654577 -34.454281 -18.946800 151.655121 102.329041
21 101.696655 -8.392275 -7.654577 -34.454281 -18.946800 151.655121 102.329041
[L_rear_hand02]
20 102.726799 -1.568258 5.773216 83.407906 30.330435 172.796509 102.900848
21 102.726799 -1.568258 5.773216 83.407906 30.330435 172.796509 102.900848
[L_rear_hand03]
20 104.552910 9.721220 -10.420293 -161.379868 -16.473232 -150.512238 105.519653
21 104.552910 9.721220 -10.420293 -161.379868 -16.473232 -150.512238 105.519653
